<?xml version="1.0" encoding="utf-8"?>
<!-- Generator: Adobe Illustrator 28.0.0, SVG Export Plug-In . SVG Version: 6.00 Build 0)  -->
<svg version="1.1" id="Laag_1" xmlns="http://www.w3.org/2000/svg" xmlns:xlink="http://www.w3.org/1999/xlink" x="0px" y="0px"
	 viewBox="0 0 40 40" style="enable-background:new 0 0 40 40;" xml:space="preserve">
<style type="text/css">
	.st0{fill:none;}
	.st1{fill:#510C32;}
	.st2{fill:#AFCA15;}
</style>
<path class="st0" d="M21.63,20.47h-5.15c-0.64,0.98-1.01,1.98-1.13,3.01h7.43C22.65,22.39,22.23,21.4,21.63,20.47z"/>
<path class="st0" d="M16.03,27.09h6.13c0.43-0.88,0.69-1.82,0.69-2.84c0-0.06,0-0.11-0.01-0.17h-7.52
	C15.31,25.06,15.54,26.06,16.03,27.09L16.03,27.09z"/>
<path class="st1" d="M17.09,16.5c0.4-0.41,0.82-0.81,1.25-1.19c-2.46-2-6.44-2.68-9.3-8.44c3.17,5.15,7.08,5.48,9.74,8.06
	C17.46,6.71,10.59,7.26,7.32,2.46C5.14,16.89,13.65,15.08,17.09,16.5L17.09,16.5L17.09,16.5z"/>
<path class="st1" d="M21.62,28.04c-0.78,1.2-1.86,2.35-3.03,3.52c-1.21,1.21-2.35,2.42-3.2,3.74c-0.76,1.18-1.31,2.44-1.41,3.85
	c-0.03,0.37,0.3,0.67,0.67,0.67l0,0c0.37,0,0.64-0.3,0.67-0.67c0.07-0.84,0.35-1.62,0.74-2.37h6c-0.03-0.06-0.06-0.13-0.1-0.19l0,0
	c-0.09-0.14-0.17-0.28-0.26-0.41h-5.29c0.03-0.05,0.06-0.1,0.1-0.16c0.78-1.2,1.86-2.35,3.03-3.52c1.21-1.21,2.35-2.42,3.2-3.74
	c0.23-0.35,0.43-0.71,0.61-1.07h-1.52C21.76,27.81,21.69,27.93,21.62,28.04L21.62,28.04z"/>
<path class="st1" d="M11.98,23.48c-0.12-0.36-0.46-0.62-0.86-0.62c-0.51,0-0.92,0.41-0.92,0.92s0.41,0.92,0.92,0.92
	c0.4,0,0.74-0.26,0.86-0.62h1.98c0-0.2,0.02-0.41,0.04-0.6L11.98,23.48L11.98,23.48z"/>
<path class="st1" d="M22.75,19.73c-0.55-0.85-1.22-1.66-1.95-2.44c-0.37,0.25-0.73,0.52-1.07,0.82c0.54,0.58,1.05,1.17,1.49,1.76
	h1.61C22.8,19.82,22.78,19.77,22.75,19.73z"/>
<path class="st1" d="M25.27,36.78c0.12,0.36,0.46,0.62,0.86,0.62c0.5,0,0.91-0.41,0.91-0.92s-0.41-0.92-0.91-0.92
	c-0.4,0-0.74,0.26-0.86,0.62h-2.01c0.1,0.2,0.2,0.4,0.29,0.6H25.27L25.27,36.78z"/>
<path class="st1" d="M22.79,23.48h-7.43c-0.02,0.2-0.04,0.4-0.04,0.6h7.52c0,0.06,0.01,0.11,0.01,0.17c0,1.02-0.26,1.96-0.69,2.84
	h1.46c0.36-0.89,0.56-1.82,0.56-2.84c0-1.39-0.38-2.62-1-3.78h-1.55C22.23,21.41,22.65,22.39,22.79,23.48L22.79,23.48z"/>
<path class="st2" d="M23.54,36.78c-0.09-0.2-0.18-0.41-0.29-0.6c-0.16-0.3-0.33-0.6-0.51-0.88c-0.63-0.98-1.41-1.89-2.27-2.79
	c-0.15,0.16-0.31,0.31-0.46,0.46c-0.16,0.16-0.32,0.32-0.48,0.49c0.56,0.59,1.09,1.19,1.55,1.79c0.21,0.29,0.42,0.6,0.62,0.92
	c0.09,0.14,0.17,0.27,0.26,0.41l0,0c0.03,0.06,0.07,0.12,0.1,0.19c0.37,0.72,0.68,1.57,0.75,2.37c0.03,0.37,0.3,0.67,0.67,0.67
	c0.37,0,0.7-0.3,0.67-0.67C24.09,38.33,23.87,37.53,23.54,36.78L23.54,36.78z"/>
<path class="st2" d="M32.72-0.04c-3.8,5.58-13.15,6.99-13.32,14.5c3.1-3,7.63-3.39,11.32-9.37c-3.24,6.51-6.75,6.55-11.18,10.09
	c-1.51,1.2-2.93,2.65-4.15,4.54c-0.74,1.15-1.26,2.38-1.4,3.75c-0.02,0.2-0.03,0.4-0.04,0.6c0,0.06,0,0.11,0,0.17
	c0,1.69,0.56,3.15,1.44,4.52c0.63,0.98,1.41,1.89,2.27,2.79c0.15-0.16,0.31-0.31,0.46-0.46c0.16-0.16,0.32-0.32,0.48-0.49
	c-0.56-0.59-1.09-1.19-1.55-1.79c-0.27-0.37-0.51-0.75-0.71-1.12h8.94c0.12,0.36,0.46,0.62,0.86,0.62c0.5,0,0.91-0.41,0.91-0.92
	c0-0.51-0.41-0.92-0.91-0.92c-0.4,0-0.74,0.26-0.86,0.62h-9.25c-0.48-1.03-0.71-2.03-0.71-3.01c0-0.2,0.02-0.4,0.04-0.6
	c0.11-1.03,0.49-2.03,1.13-3.01h8.79c0.12,0.36,0.46,0.62,0.86,0.62c0.5,0,0.91-0.41,0.91-0.92c0-0.51-0.41-0.92-0.91-0.92
	c-0.4,0-0.74,0.26-0.86,0.62h-8.36c0.05-0.06,0.09-0.12,0.14-0.18c1.33-1.75,2.7-2.85,4.04-3.62l0,0
	C25.51,13.5,35.29,17.01,32.72-0.04L32.72-0.04z"/>
</svg>
